<?xml version="1.0" standalone="no"?>
<!DOCTYPE svg PUBLIC "-//W3C//DTD SVG 20010904//EN"
 "http://www.w3.org/TR/2001/REC-SVG-20010904/DTD/svg10.dtd">
<svg version="1.0" xmlns="http://www.w3.org/2000/svg"
 width="640.000000pt" height="640.000000pt" viewBox="0 0 640.000000 640.000000"
 preserveAspectRatio="xMidYMid meet">
<metadata>
Created by potrace 1.14, written by Peter Selinger 2001-2017
</metadata>
<g transform="translate(0.000000,640.000000) scale(0.100000,-0.100000)"
fill="#000000" stroke="none">
<path d="M4987 5094 c-1 -1 -40 -5 -87 -9 -149 -12 -164 -14 -230 -21 -36 -3
-85 -8 -110 -10 -25 -2 -70 -6 -100 -9 -178 -17 -212 -19 -600 -30 -129 -4
-237 -8 -239 -10 -2 -2 -4 -70 -5 -150 -2 -166 -10 -149 101 -214 l72 -43 128
-4 c70 -3 134 -6 141 -6 19 -2 29 -33 32 -103 5 -98 2 -597 -4 -790 -6 -177
-7 -193 -5 -217 0 -12 -3 -122 -16 -578 -4 -136 -15 -367 -20 -415 -2 -16 -6
-50 -9 -75 -3 -25 -8 -61 -10 -80 -8 -68 -20 -95 -55 -127 -56 -50 -171 -107
-262 -129 -41 -10 -281 -13 -339 -4 -30 4 -73 11 -96 14 -159 25 -319 101
-421 203 -68 67 -126 160 -138 221 -1 9 -8 37 -15 61 -17 64 -23 175 -36 686
-8 321 -9 1033 -2 1115 3 30 6 67 7 82 3 71 88 105 281 112 l35 1 0 124 0 124
-30 17 c-16 9 -82 39 -147 68 -91 40 -125 50 -155 47 -63 -6 -154 -15 -218
-20 -33 -3 -82 -7 -110 -10 -27 -3 -75 -7 -105 -10 -30 -2 -82 -7 -115 -10
-84 -8 -202 -14 -405 -21 -96 -3 -211 -7 -255 -9 -44 -2 -101 -4 -127 -4 l-47
-1 5 -102 c3 -57 6 -115 7 -130 1 -31 -13 -26 177 -59 69 -12 130 -25 137 -31
13 -11 32 -112 38 -213 3 -38 7 -110 11 -160 3 -49 7 -115 9 -145 10 -142 23
-379 30 -555 3 -71 7 -161 10 -200 2 -38 7 -140 10 -225 15 -377 23 -520 41
-685 12 -122 95 -321 180 -435 112 -151 261 -268 460 -361 103 -48 288 -114
384 -137 115 -28 244 -54 280 -57 14 -1 52 -6 85 -10 72 -9 344 -10 398 -1 20
3 53 9 72 12 19 3 65 14 102 25 38 11 76 21 87 24 34 8 170 78 231 118 81 54
202 178 248 254 21 34 38 65 37 68 0 3 6 18 14 33 35 66 49 109 72 217 2 11
11 47 19 80 9 33 18 74 21 90 3 17 9 44 14 60 5 17 12 50 16 75 4 25 8 47 9
50 1 3 5 32 9 65 4 32 10 68 12 79 8 42 18 215 28 466 8 211 19 408 31 570 9
107 16 211 19 285 2 39 7 100 11 136 4 37 8 87 10 110 3 46 14 163 20 214 3
17 7 55 11 85 7 59 27 108 53 127 20 15 113 32 211 39 41 3 84 6 94 7 15 2 23
15 32 57 12 51 27 178 25 208 -1 6 -1 18 -2 25 0 6 2 46 6 88 l6 77 -31 -2
c-17 0 -32 -2 -33 -2z"/>
</g>
</svg>
